<svg width="95" height="95" viewBox="0 0 95 95" fill="none" xmlns="http://www.w3.org/2000/svg">
<circle cx="47.5" cy="47.5" r="47.5" fill="#006634"/>
<path fill-rule="evenodd" clip-rule="evenodd" d="M34.9901 13.7144L40.0017 16.2212L40.0073 21.2517L36.3171 19.2849L36.3192 26.0355L38.1272 27.0808C38.6327 27.3729 39.0568 27.8874 39.3937 28.6234C39.7338 29.3636 40.0258 30.537 40.2694 32.1531C40.5135 33.7682 40.6384 35.5742 40.6409 37.5586C40.6434 39.5942 40.5228 41.2617 40.2784 42.5505C40.036 43.8299 39.7598 44.6345 39.4484 44.9511C39.1399 45.2679 38.7013 45.2278 38.1363 44.8351L34.9901 42.6471V13.7144ZM42.7235 65.597C42.9155 63.007 43.6117 61.2287 44.741 60.3328C45.7986 59.4924 47.0034 59.5674 48.2959 60.439C49.5027 61.2522 50.3429 62.4665 50.8813 64.06C51.3845 65.5504 51.5752 67.1969 51.4766 69.0452C51.3696 71.0552 50.9723 72.6469 50.2569 73.8897C49.5048 75.1988 48.5484 75.8818 47.3275 75.8818C46.1135 75.8818 45.0459 75.1988 44.1656 73.744C43.212 72.1686 42.6892 69.8201 42.6617 66.7371C42.2454 66.5581 42.0238 66.4637 42.0055 66.4579C41.9334 66.4349 41.7187 66.3796 41.3507 66.2887L39.7548 65.8059L39.7396 69.8056C39.7369 70.4716 39.7508 71.2535 39.781 72.1438L39.8204 73.5712L39.7766 73.57L48.6501 79.7768L53.8371 75.6048C53.8431 75.2302 53.8473 74.8043 53.8492 74.3262L53.8872 64.2857C53.893 62.8176 53.8722 61.8749 53.8257 61.4592C53.7795 61.0487 53.554 61.0094 53.1572 61.3333L52.7741 61.6455L52.7778 60.851C53.3486 60.4166 53.9038 59.9913 54.411 59.5408L58.5839 55.8355C59.1275 55.3528 59.6392 54.9782 60.0884 54.6862C59.8851 55.9429 59.7789 57.7062 59.7673 59.9925L59.1746 60.3912C59.1443 59.2665 59.0749 58.3138 58.9643 57.5375C58.2415 57.7274 57.492 58.1419 56.7248 58.7572C56.1662 59.2056 55.6337 59.6955 55.1234 60.2218C55.0695 61.4511 55.0402 62.5517 55.0373 63.525L55.0061 74.0772L55.0059 74.6648L60.2406 70.4547L60.2004 50.0851L48.247 58.7246L35.2032 49.5858L35.2011 51.9941C36.5113 52.9281 37.6316 53.7007 38.5932 54.3357C39.8851 55.1892 40.9111 55.8361 41.7112 56.3046L41.7008 57.2365L41.2944 56.9795C40.5237 56.4929 40.069 56.3807 39.9574 56.6557C39.8454 56.9326 39.7824 58.4317 39.7724 61.105L39.76 64.4572C41.2591 65.0921 41.9592 65.3907 41.965 65.3928C42.1358 65.4539 42.3901 65.5223 42.7235 65.597ZM37.7206 72.132C37.7366 71.418 37.7418 70.5169 37.7366 69.4243L37.6932 60.133C37.6803 57.415 37.6034 55.7704 37.4606 55.2341C37.3161 54.6912 36.8428 54.1665 36.0172 53.6448L35.2001 53.1285L35.1851 70.3585L37.7206 72.132ZM47.9392 61.2027C46.9523 60.58 46.0981 60.6851 45.4236 61.5898C44.7213 62.5276 44.3334 64.1452 44.2829 66.3779C44.2274 68.8309 44.5554 70.9295 45.2287 72.6259C45.8585 74.2125 46.7134 74.9903 47.7515 75.0281C48.5969 75.0589 49.2454 74.5609 49.7283 73.5629C50.1962 72.5953 50.4691 71.2305 50.5587 69.4223C50.6535 67.5056 50.5051 65.8524 50.0947 64.4327C49.6626 62.9301 48.9598 61.8469 47.9392 61.2027ZM48.6328 55.0221L32.2829 43.839L32 72.0087L48.8453 83.6871L63.4963 71.3009L63.4255 43.3435L48.6328 55.0221ZM61.7129 30.6189L62.9104 31.2703C62.7123 34.4559 62.3951 36.9799 61.9571 38.8559C61.5154 40.7433 60.9546 42.0219 60.2678 42.6821C59.4012 43.515 58.6803 42.9095 58.1104 40.8302C57.5329 38.7164 57.2465 35.3361 57.2598 30.6943C57.2741 25.7742 57.5855 21.7277 58.1869 18.6081C58.7811 15.524 59.5455 13.7108 60.4671 13.1527C61.256 12.6749 61.8808 13.3205 62.3475 15.0603C62.6239 16.0763 62.8239 17.6509 62.9519 19.7871L61.7093 21.999C61.6411 20.5967 61.4907 19.5487 61.2566 18.8615C61.0196 18.171 60.7284 17.9415 60.3815 18.1722C59.8959 18.4961 59.4941 19.5308 59.1811 21.2889C58.8647 23.0506 58.7005 25.672 58.6887 29.1377C58.676 32.7963 58.8204 35.2709 59.1181 36.5495C59.4149 37.822 59.8005 38.2359 60.2742 37.8083C60.6205 37.4957 60.9186 36.7523 61.1678 35.5744C61.4162 34.402 61.5983 32.7551 61.7129 30.6189ZM49.9573 20.1068L51.4903 19.1685L51.4777 40.1918L54.6183 17.2535L56.0935 16.3509L56.0213 46.2694L54.6553 47.5752L54.6923 27.7589L51.5704 50.5231L49.9573 52.0642V20.1068ZM48.1209 51.7773L46.4509 50.6162L45.782 43.0496L42.8282 41.1277L42.241 47.6891L40.7176 46.6298L43.4441 17.9434L45.0102 18.7268L48.1209 51.7773ZM45.2787 37.4813L44.227 25.4678L43.2641 36.2364L45.2787 37.4813ZM36.3229 38.6138L37.6373 39.4845C38.0617 39.7651 38.3629 39.8749 38.5361 39.8096C38.7094 39.7435 38.8624 39.4354 38.9917 38.874C39.1208 38.3194 39.1842 37.5686 39.1834 36.6305C39.1821 35.2622 39.0674 34.1987 38.8414 33.4354C38.6146 32.6813 38.232 32.1367 37.6923 31.8072L36.3206 30.9683L36.3229 38.6138Z" fill="white"/>
</svg>
