<svg width="159" height="21" viewBox="0 0 159 21" fill="none" xmlns="http://www.w3.org/2000/svg">
  <path
    d="M15.668 0.287998C17.1987 0.287998 18.4867 0.455999 19.532 0.791999C20.596 1.10933 21.4453 1.65067 22.08 2.416C22.7333 3.16267 23.2093 4.18933 23.508 5.496C23.8067 6.784 23.956 8.39867 23.956 10.34C23.956 12.2813 23.8067 13.9053 23.508 15.212C23.2093 16.5 22.7333 17.5267 22.08 18.292C21.4453 19.0387 20.596 19.58 19.532 19.916C18.4867 20.2333 17.1987 20.392 15.668 20.392C14.2307 20.392 13.008 20.2333 12 19.916C11.0107 19.58 10.2173 19.0387 9.62 18.292C9.02267 17.5267 8.584 16.5 8.304 15.212C8.024 13.9053 7.884 12.2813 7.884 10.34C7.884 8.39867 8.024 6.784 8.304 5.496C8.584 4.18933 9.02267 3.16267 9.62 2.416C10.2173 1.65067 11.0107 1.10933 12 0.791999C13.008 0.455999 14.2307 0.287998 15.668 0.287998ZM4.328 0.679998V20H0.0160001V0.679998H4.328ZM9.564 8.492V11.488H4.076V8.492H9.564ZM15.668 3.676C14.7347 3.676 14.0067 3.872 13.484 4.264C12.9613 4.656 12.588 5.33733 12.364 6.308C12.1587 7.26 12.056 8.604 12.056 10.34C12.056 12.0573 12.1587 13.4013 12.364 14.372C12.588 15.3427 12.9613 16.024 13.484 16.416C14.0067 16.808 14.7347 17.004 15.668 17.004C16.6387 17.004 17.3947 16.808 17.936 16.416C18.496 16.024 18.8787 15.3427 19.084 14.372C19.308 13.4013 19.42 12.0573 19.42 10.34C19.42 8.604 19.308 7.26 19.084 6.308C18.8787 5.33733 18.496 4.656 17.936 4.264C17.3947 3.872 16.6387 3.676 15.668 3.676ZM34.6977 0.399999C36.4897 0.399999 37.8991 0.586666 38.9257 0.96C39.9524 1.33333 40.6804 1.97733 41.1097 2.892C41.5577 3.80667 41.7817 5.08533 41.7817 6.728C41.7817 8.37067 41.5671 9.64933 41.1377 10.564C40.7271 11.4787 40.0457 12.1227 39.0937 12.496C38.1417 12.8507 36.8537 13.028 35.2297 13.028C34.3711 13.028 33.5311 12.9907 32.7097 12.916C31.8884 12.8413 31.1231 12.748 30.4137 12.636C29.7044 12.524 29.0977 12.412 28.5937 12.3C28.0897 12.1693 27.7444 12.048 27.5577 11.936L27.6417 9.808C28.7431 9.808 29.8817 9.808 31.0577 9.808C32.2524 9.808 33.4284 9.808 34.5857 9.808C35.3324 9.78933 35.9111 9.696 36.3217 9.528C36.7511 9.36 37.0497 9.052 37.2177 8.604C37.4044 8.156 37.4977 7.53067 37.4977 6.728C37.4977 5.90667 37.4044 5.272 37.2177 4.824C37.0497 4.376 36.7511 4.068 36.3217 3.9C35.9111 3.71333 35.3324 3.62 34.5857 3.62C32.8684 3.62 31.3937 3.62933 30.1617 3.648C28.9297 3.66667 28.0991 3.704 27.6697 3.76L27.2497 0.679998C28.0337 0.586665 28.7711 0.521332 29.4617 0.483999C30.1524 0.446665 30.8991 0.427998 31.7017 0.427998C32.5231 0.409332 33.5217 0.399999 34.6977 0.399999ZM31.5337 0.679998V20H27.2497V0.679998H31.5337ZM53.181 0.679998V20H48.897V0.679998H53.181ZM59.005 0.679998V4.04H43.101V0.679998H59.005ZM68.8547 0.287998C70.3853 0.287998 71.6827 0.455999 72.7467 0.791999C73.8107 1.10933 74.66 1.65067 75.2947 2.416C75.948 3.16267 76.424 4.18933 76.7227 5.496C77.0213 6.784 77.1707 8.39867 77.1707 10.34C77.1707 12.2813 77.0213 13.9053 76.7227 15.212C76.424 16.5 75.948 17.5267 75.2947 18.292C74.66 19.0387 73.8107 19.58 72.7467 19.916C71.6827 20.2333 70.3853 20.392 68.8547 20.392C67.324 20.392 66.0267 20.2333 64.9627 19.916C63.8987 19.58 63.04 19.0387 62.3867 18.292C61.7333 17.5267 61.2573 16.5 60.9587 15.212C60.66 13.9053 60.5107 12.2813 60.5107 10.34C60.5107 8.39867 60.66 6.784 60.9587 5.496C61.2573 4.18933 61.7333 3.16267 62.3867 2.416C63.04 1.65067 63.8987 1.10933 64.9627 0.791999C66.0267 0.455999 67.324 0.287998 68.8547 0.287998ZM68.8547 3.676C67.8653 3.676 67.0907 3.872 66.5307 4.264C65.9893 4.656 65.5973 5.33733 65.3547 6.308C65.1307 7.26 65.0187 8.604 65.0187 10.34C65.0187 12.0573 65.1307 13.4013 65.3547 14.372C65.5973 15.3427 65.9893 16.024 66.5307 16.416C67.0907 16.808 67.8653 17.004 68.8547 17.004C69.8253 17.004 70.5813 16.808 71.1227 16.416C71.6827 16.024 72.0747 15.3427 72.2987 14.372C72.5413 13.4013 72.6627 12.0573 72.6627 10.34C72.6627 8.604 72.5413 7.26 72.2987 6.308C72.0747 5.33733 71.6827 4.656 71.1227 4.264C70.5813 3.872 69.8253 3.676 68.8547 3.676ZM88.468 11.544V14.176H80.124V11.544H88.468ZM99.1732 0.679998V20H94.8892V0.679998H99.1732ZM104.997 0.679998V4.04H89.0932V0.679998H104.997ZM114.897 0.399999C116.689 0.399999 118.098 0.586666 119.125 0.96C120.152 1.33333 120.88 1.97733 121.309 2.892C121.757 3.80667 121.981 5.08533 121.981 6.728C121.981 8.37067 121.766 9.64933 121.337 10.564C120.926 11.4787 120.245 12.1227 119.293 12.496C118.341 12.8507 117.053 13.028 115.429 13.028C114.57 13.028 113.73 12.9907 112.909 12.916C112.088 12.8413 111.322 12.748 110.613 12.636C109.904 12.524 109.297 12.412 108.793 12.3C108.289 12.1693 107.944 12.048 107.757 11.936L107.841 9.808C108.942 9.808 110.081 9.808 111.257 9.808C112.452 9.808 113.628 9.808 114.785 9.808C115.532 9.78933 116.11 9.696 116.521 9.528C116.95 9.36 117.249 9.052 117.417 8.604C117.604 8.156 117.697 7.53067 117.697 6.728C117.697 5.90667 117.604 5.272 117.417 4.824C117.249 4.376 116.95 4.068 116.521 3.9C116.11 3.71333 115.532 3.62 114.785 3.62C113.068 3.62 111.593 3.62933 110.361 3.648C109.129 3.66667 108.298 3.704 107.869 3.76L107.449 0.679998C108.233 0.586665 108.97 0.521332 109.661 0.483999C110.352 0.446665 111.098 0.427998 111.901 0.427998C112.722 0.409332 113.721 0.399999 114.897 0.399999ZM111.733 0.679998V20H107.449V0.679998H111.733ZM133.996 0.679998C134.351 0.679998 134.659 0.782665 134.92 0.987999C135.2 1.19333 135.387 1.464 135.48 1.8L141.08 20H136.712L132.764 5.804C132.69 5.48667 132.615 5.16933 132.54 4.852C132.466 4.516 132.4 4.19867 132.344 3.9H131.588C131.532 4.19867 131.467 4.516 131.392 4.852C131.336 5.16933 131.262 5.48667 131.168 5.804L127.22 20H122.824L128.452 1.8C128.546 1.464 128.723 1.19333 128.984 0.987999C129.264 0.782665 129.582 0.679998 129.936 0.679998H133.996ZM136.964 11.684V14.904H126.94V11.684H136.964ZM158.029 0.679998C157.619 1.968 157.255 3.09733 156.937 4.068C156.62 5.02 156.312 5.84133 156.013 6.532C155.715 7.22267 155.379 7.80133 155.005 8.268C154.651 8.716 154.221 9.07067 153.717 9.332C153.213 9.57467 152.588 9.74267 151.841 9.836V10.004C152.625 10.0973 153.279 10.2747 153.801 10.536C154.343 10.7787 154.809 11.1427 155.201 11.628C155.612 12.0947 155.976 12.7107 156.293 13.476C156.629 14.2227 156.975 15.1373 157.329 16.22C157.684 17.284 158.095 18.544 158.561 20H154.081C153.559 18.3387 153.12 16.9573 152.765 15.856C152.411 14.7547 152.056 13.8867 151.701 13.252C151.347 12.5987 150.927 12.132 150.441 11.852C149.956 11.572 149.331 11.432 148.565 11.432L148.537 8.464C149.265 8.464 149.872 8.31467 150.357 8.016C150.843 7.69867 151.263 7.232 151.617 6.616C151.972 5.98133 152.299 5.17867 152.597 4.208C152.915 3.21867 153.269 2.04267 153.661 0.679998H158.029ZM147.389 0.679998V6.14C147.389 6.77467 147.343 7.40933 147.249 8.044C147.156 8.67867 147.007 9.28533 146.801 9.864C146.951 10.4427 147.081 11.04 147.193 11.656C147.324 12.2533 147.389 12.8133 147.389 13.336V20H143.133V0.679998H147.389ZM149.769 8.464V11.432H146.297V8.464H149.769Z"
    fill="#EC3C3C" />
</svg>
