<svg width="272" height="280" viewBox="0 0 272 280" fill="none" xmlns="http://www.w3.org/2000/svg">
<path d="M124.89 62.0109C124.89 96.2585 96.9325 124.022 62.4451 124.022C27.9576 124.022 0 96.2585 0 62.0109C0 27.7632 27.9576 0 62.4451 0C96.9325 0 124.89 27.7632 124.89 62.0109Z" fill="#006634"/>
<path d="M272 62.0109C272 96.2585 244.042 124.022 209.555 124.022C175.067 124.022 147.11 96.2585 147.11 62.0109C147.11 27.7632 175.067 0 209.555 0C244.042 0 272 27.7632 272 62.0109Z" fill="#006634"/>
<path d="M124.89 217.989C124.89 252.237 96.9325 280 62.4451 280C27.9576 280 0 252.237 0 217.989C0 183.741 27.9576 155.978 62.4451 155.978C96.9325 155.978 124.89 183.741 124.89 217.989Z" fill="#006634"/>
<path d="M272 217.989C272 252.237 244.042 280 209.555 280C175.067 280 147.11 252.237 147.11 217.989C147.11 183.741 175.067 155.978 209.555 155.978C244.042 155.978 272 183.741 272 217.989Z" fill="#006634"/>
</svg>
